<?xml version='1.0' encoding='utf-8'?>
<svg xmlns:xlink="http://www.w3.org/1999/xlink" xmlns="http://www.w3.org/2000/svg" enable-background="new 0 0 3000 3000" version="1.1" viewBox="0 0 3e3 3e3"> <path d="m2142.4 1266.2c0 193.5-86.1 374.9-236.2 497.6-52 42.5-87.8 102.5-100.6 168.8l-40.9 212.6c-12.1 62.6-55.2 112.8-111.5 135.8-21.5 8.8-45 13.7-69.4 13.7h-167.3v-0.3c-88.1 0-164.3-62.8-180.9-149.5l-40.6-211c-13-67.3-48.9-127.9-101.2-170.7-149.6-122.5-235.7-303.5-235.9-496.5-0.2-85.8 16.6-169 49.5-247.6 31.9-75.9 77.3-144.3 135.4-203.4 58.1-59 125.9-105.6 201.3-138.5 78.1-34.1 161-52 246.8-53.1h9.2c33.7 0 67 2.6 99.8 7.7 51.5 8 101.7 22.3 150.1 42.8 76.5 32.3 145.1 78.7 204.1 137.6 59 59 105.3 127.6 137.6 204.1 33.6 79.2 50.7 163.2 50.7 249.9z" enable-background="new " fill="#2AB4E9" opacity=".8"/> <path d="m2142.4 1266.2c0 193.5-86.1 374.9-236.2 497.6-52 42.5-87.8 102.5-100.6 168.8l-40.9 212.6c-12.1 62.6-55.2 112.8-111.5 135.8 6.5-542.1 42.2-405.7 194.4-910.9 98.4-326.9-92.7-589.2-247.5-738.5 51.5 8 101.7 22.3 150.1 42.8 76.5 32.3 145.1 78.7 204.1 137.6 59 59 105.3 127.6 137.6 204.1 33.4 79.4 50.5 163.4 50.5 250.1z" enable-background="new " fill="#2AB4E9" opacity=".8"/> <path d="m1499.9 655c82.5 0 162.4 16.1 237.7 48 72.8 30.8 138.1 74.8 194.1 130.9 56.1 56.1 100.1 121.5 130.9 194.1 31.9 75.3 48 155.3 48 237.7 0 46.9-5.3 93.6-15.8 138.9-10.2 43.9-25.3 86.8-45.1 127.5-19.4 40-43.1 77.8-70.8 112.8-27.5 34.7-58.7 66.4-93.1 94.5-57.6 47.2-97.3 113.6-111.4 187.1l-40.9 212.6c-13.9 71.8-77 124-150.3 124h-167.1c-73.3 0-136.4-52.2-150.3-124l-40.6-211c-14.4-74.5-54.2-141.7-112-189-142.4-116.5-224.1-288.6-224.5-472.5-0.2-81.5 15.8-160.7 47-235.5 30.3-72.3 73.6-137.5 128.9-193.5 55.3-56.2 119.8-100.6 191.5-131.8 74.2-32.5 153.2-49.4 234.8-50.6 3.2-0.2 6.2-0.2 9-0.2m0-62.4h-9.5c-367.5 5.2-664.1 306.5-663.8 674 0.2 209.9 96.5 397.4 247.3 520.8 47 38.6 78.7 92.6 90.3 152.4l40.6 211c19.5 101.4 108.2 174.8 211.6 174.8h167.1c103.2 0 192.1-73.3 211.6-174.8l40.9-212.6c11.4-59 43-112.5 89.7-150.6 151.2-123.5 247.7-311.3 247.7-521.7-0.1-371.9-301.6-673.3-673.5-673.3z" fill="#231F20"/> <path d="m1500 2490.9c-70.1 0-140.1-11.9-209.7-35.7-19.5-6.7-29.9-27.9-23.2-47.4s27.9-29.9 47.4-23.2c123.2 42.1 248 42.1 371 0 19.5-6.7 40.7 3.7 47.4 23.2s-3.7 40.7-23.2 47.4c-69.6 23.8-139.7 35.7-209.7 35.7z" fill="#231F20"/> <path d="m1500 2648.3c-70.1 0-140.1-11.9-209.7-35.7-19.5-6.7-29.9-27.9-23.2-47.4s27.9-29.9 47.4-23.2c123.2 42.1 248 42.1 371 0 19.5-6.7 40.7 3.7 47.4 23.2s-3.7 40.7-23.2 47.4c-69.6 23.8-139.7 35.7-209.7 35.7z" fill="#231F20"/> <path d="m1500.1 2808.1c-42.8 0-85.6-11.4-128.2-34.3-18.1-9.7-25-32.3-15.2-50.5 9.7-18.1 32.3-25 50.5-15.2 63.4 34 122.4 34 185.7 0 18.1-9.8 40.8-3 50.5 15.2 9.8 18.1 3 40.8-15.2 50.5-42.5 22.9-85.3 34.3-128.1 34.3z" fill="#231F20"/> <ellipse transform="matrix(.8831 .4692 -.4692 .8831 632.03 -425.81)" cx="1170.4" cy="1055.3" rx="89.6" ry="138.7" fill="#fff" opacity=".6"/> <g enable-background="new "> <polygon points="1448.3 1737.6 1373.4 1709.5 1373.7 1536.8 1448.6 1564.9" fill="#930709"/> <polygon points="1448.6 1564.9 1373.7 1536.8 1517.9 1507.2 1592.8 1535.3" fill="#B21117"/> <polygon points="1448.3 1737.6 1448.6 1564.9 1592.8 1535.3 1592.5 1708" fill="#D31820"/> <polygon points="1448.7 1507.3 1373.8 1479.3 1373.9 1421.7 1448.9 1449.8" fill="#930709"/> <g enable-background="new "> <defs> <path id="v" d="m1623.8 934.5 75 28.1c-28.1-10.5-63.1-11.5-104.9-2.9l-75-28.1c41.8-8.7 76.8-7.7 104.9 2.9z" enable-background="new "/> </defs> <clipPath id="k"> <use overflow="visible" xlink:href="#v"/> </clipPath> <g clip-path="url(#k)" enable-background="new "> <path d="m1593.9 959.6-75-28.1c19-3.9 36.6-5.8 52.8-5.8l75 28.1c-16.2 0-33.8 1.9-52.8 5.8" fill="#A90F14"/> <path d="m1646.7 953.8-75-28.1c11.4 0 22 1.1 32 3l75 28.1c-10-1.9-20.6-2.9-32-3" fill="#A50D12"/> <path d="m1678.7 956.9-75-28.1c7 1.4 13.7 3.3 20.1 5.7l75 28.1c-6.4-2.4-13.1-4.3-20.1-5.7" fill="#A10C11"/> </g> <defs> <path id="g" d="m1544.8 1105 75 28.1c14.5 5.4 21.8 21.1 21.7 47-0.1 38.4-16.1 60.9-48.2 67.4-96.1 19.7-144.3 87.2-144.5 202.3l-75-28.1c0.2-115.1 48.4-182.6 144.5-202.3 32-6.6 48.1-29 48.2-67.4 0.1-25.9-7.1-41.6-21.7-47z" enable-background="new "/> </defs> <clipPath id="f"> <use overflow="visible" xlink:href="#g"/> </clipPath> <g clip-path="url(#f)" enable-background="new "> <path d="m1448.9 1449.8-75-28.1c0-14.3 0.8-27.8 2.3-40.6l75 28.1c-1.6 12.8-2.3 26.3-2.3 40.6" fill="#8F0507"/> <path d="m1451.1 1409.2-75-28.1c1.4-11.7 3.4-22.8 5.9-33.3l75 28.1c-2.5 10.5-4.5 21.6-5.9 33.3" fill="#920609"/> <path d="m1457.1 1375.9-75-28.1c1.8-7.4 4-14.5 6.4-21.3l75 28.1c-2.4 6.8-4.6 13.9-6.4 21.3" fill="#96080B"/> <path d="m1463.5 1354.6-75-28.1c2.1-5.8 4.4-11.3 6.9-16.6l75 28.1c-2.5 5.3-4.8 10.8-6.9 16.6" fill="#9A090D"/> <path d="m1470.4 1338-75-28.1c2.4-5 4.9-9.8 7.7-14.4l75 28.1c-2.7 4.6-5.3 9.4-7.7 14.4" fill="#9E0B0F"/> <path d="m1478.1 1323.6-75-28.1c2.9-4.8 5.9-9.4 9.2-13.8l75 28.1c-3.2 4.4-6.3 9-9.2 13.8" fill="#A10C11"/> <path d="m1487.4 1309.8-75-28.1c3.9-5.1 8-10 12.4-14.5l75 28.1c-4.4 4.5-8.6 9.4-12.4 14.5" fill="#A50D12"/> <path d="m1499.8 1295.3-75-28.1c7.9-8.1 16.7-15.3 26.4-21.5l75 28.1c-9.7 6.2-18.5 13.4-26.4 21.5" fill="#A90F14"/> <path d="m1526.2 1273.8-75-28.1c14.1-9.1 30.2-16.3 48.2-21.6l75 28.1c-18.1 5.2-34.1 12.4-48.2 21.6" fill="#AD1015"/> <path d="m1574.3 1252.2-75-28.1c6.1-1.8 12.5-3.4 19-4.7 2.2-0.4 4.3-1 6.3-1.6l75 28.1c-2 0.6-4.2 1.1-6.3 1.6-6.5 1.3-12.8 2.9-19 4.7" fill="#A90F14"/> <path d="m1599.7 1245.9-75-28.1c6-1.8 11.4-4.2 16.1-7.2l75 28.1c-4.7 3-10.1 5.4-16.1 7.2" fill="#AD1015"/> <path d="m1615.8 1238.7-75-28.1c3.2-2.1 6.2-4.5 8.8-7.2l75 28.1c-2.7 2.7-5.6 5.1-8.8 7.2" fill="#A90F14"/> <path d="m1624.6 1231.5-75-28.1c1.5-1.5 2.9-3.1 4.1-4.8l75 28.1c-1.3 1.7-2.7 3.3-4.1 4.8" fill="#A50D12"/> <path d="m1628.7 1226.7-75-28.1c1.1-1.5 2.1-3 3.1-4.6l75 28.1c-1 1.6-2 3.1-3.1 4.6" fill="#A10C11"/> <path d="m1631.8 1222.1-75-28.1c0.9-1.5 1.8-3.1 2.6-4.8l75 28.1c-0.8 1.7-1.7 3.3-2.6 4.8" fill="#9E0B0F"/> <path d="m1634.3 1217.3-75-28.1c0.8-1.8 1.6-3.6 2.3-5.5l75 28.1c-0.6 1.9-1.4 3.7-2.3 5.5" fill="#9A090D"/> <path d="m1636.6 1211.7-75-28.1c0.8-2.3 1.5-4.6 2.1-7.1l75 28.1c-0.5 2.5-1.2 4.9-2.1 7.1" fill="#96080B"/> <path d="m1638.8 1204.6-75-28.1c0.9-3.5 1.5-7.2 2-11.1l75 28.1c-0.5 4-1.1 7.6-2 11.1" fill="#920609"/> <path d="m1640.8 1193.6-75-28.1c0.5-4.3 0.8-8.8 0.8-13.5 0-25.9-7.2-41.5-21.7-47l75 28.1c14.5 5.4 21.8 21.1 21.7 47-0.1 4.7-0.3 9.2-0.8 13.5" fill="#8F0507"/> </g> </g> <polygon points="1377.3 1176.7 1302.3 1148.6 1317.1 972.9 1392 1001" fill="#97080B"/> <polygon points="1392 1001 1317.1 972.9 1518.9 931.5 1593.9 959.6" fill="#B21117"/> <path d="m1593.9 959.6c128.2-26.3 192.1 37.3 191.8 190.8-0.3 142-48.5 228.7-144.6 259.9-32 6.6-48.1 29.1-48.2 67.4l-144.2 29.6 0.1-57.6c0.2-115.1 48.4-182.6 144.5-202.3 32-6.6 48.1-29 48.2-67.4s-15.9-54.3-48-47.7l-216.3 44.4 14.8-175.7 201.9-41.4z" fill="#D31820"/> <polygon points="1463.8 543.1 1418.8 526.2 1419 422.5 1464 439.3" fill="#025C93"/> <polygon points="1464 439.3 1419 422.5 1505.6 404.7 1550.6 421.6" fill="#1076B2"/> <polygon points="1463.8 543.1 1464 439.3 1550.6 421.6 1550.4 525.3" fill="#228ECE"/> <polygon points="1464.1 404.8 1419.1 387.9 1419.1 353.3 1464.2 370.2" fill="#025C93"/> <g enable-background="new "> <defs> <path id="e" d="m1569.2 60.8 45 16.9c-16.9-6.3-37.9-6.9-63-1.8l-45-16.9c25.1-5.1 46.1-4.6 63 1.8z" enable-background="new "/> </defs> <clipPath id="d"> <use overflow="visible" xlink:href="#e"/> </clipPath> <g clip-path="url(#d)" enable-background="new "> <path d="m1551.3 75.9-45-16.9c11.4-2.3 22-3.5 31.7-3.5l45 16.9c-9.8 0-20.3 1.1-31.7 3.5" fill="#0D6FAA"/> <path d="m1583 72.4-45-16.9c6.8 0 13.2 0.6 19.2 1.8l45 16.9c-6-1.2-12.4-1.8-19.2-1.8" fill="#0B6CA6"/> <path d="m1602.2 74.2-45-16.9c4.2 0.8 8.2 2 12 3.4l45 16.9c-3.8-1.4-7.8-2.5-12-3.4" fill="#0C69A2"/> </g> <defs> <path id="c" d="m1521.8 163.2 45 16.9c8.7 3.3 13.1 12.7 13.1 28.2 0 23.1-9.7 36.5-28.9 40.5-57.7 11.8-86.6 52.3-86.8 121.5l-45-16.9c0.1-69.1 29.1-109.6 86.8-121.5 19.2-3.9 28.9-17.4 28.9-40.5 0-15.6-4.4-25-13.1-28.2z" enable-background="new "/> </defs> <clipPath id="b"> <use overflow="visible" xlink:href="#c"/> </clipPath> <g clip-path="url(#b)" enable-background="new "> <path d="m1464.2 370.2-45-16.9c0-8.6 0.5-16.7 1.4-24.4l45 16.9c-1 7.7-1.4 15.8-1.4 24.4" fill="#01598F"/> <path d="m1465.5 345.8-45-16.9c0.8-7 2-13.7 3.6-20l45 16.9c-1.6 6.4-2.7 13-3.6 20" fill="#025C92"/> <path d="m1469.1 325.9-45-16.9c1.1-4.5 2.4-8.7 3.9-12.8l45 16.9c-1.5 4.1-2.8 8.3-3.9 12.8" fill="#065F96"/> <path d="m1473 313.1-45-16.9c1.2-3.5 2.6-6.8 4.1-10l45 16.9c-1.5 3.2-2.9 6.5-4.1 10" fill="#09639A"/> <path d="m1477.1 303.1-45-16.9c1.4-3 3-5.9 4.6-8.7l45 16.9c-1.6 2.8-3.2 5.7-4.6 8.7" fill="#0A669F"/> <path d="m1481.7 294.4-45-16.9c1.7-2.9 3.6-5.6 5.5-8.3l45 16.9c-1.9 2.7-3.7 5.4-5.5 8.3" fill="#0C69A2"/> <path d="m1487.3 286.2-45-16.9c2.3-3.1 4.8-6 7.5-8.7l45 16.9c-2.7 2.7-5.2 5.6-7.5 8.7" fill="#0B6CA6"/> <path d="m1494.8 277.4-45-16.9c4.7-4.9 10-9.2 15.8-12.9l45 16.9c-5.8 3.8-11.1 8.1-15.8 12.9" fill="#0D6FAA"/> <path d="m1510.6 264.5-45-16.9c8.5-5.5 18.1-9.8 28.9-13l45 16.9c-10.8 3.2-20.4 7.5-28.9 13" fill="#0F72AE"/> <path d="m1539.5 251.6-45-16.9c3.7-1.1 7.5-2 11.4-2.8 1.3-0.3 2.6-0.6 3.8-0.9l45 16.9c-1.2 0.4-2.5 0.7-3.8 0.9-3.9 0.7-7.7 1.7-11.4 2.8" fill="#0D6FAA"/> <path d="m1554.8 247.8-45-16.9c3.6-1.1 6.8-2.5 9.6-4.3l45 16.9c-2.8 1.8-6 3.2-9.6 4.3" fill="#0F72AE"/> <path d="m1564.4 243.5-45-16.9c1.9-1.3 3.7-2.7 5.3-4.3l45 16.9c-1.6 1.6-3.4 3-5.3 4.3" fill="#0D6FAA"/> <path d="m1569.7 239.2-45-16.9c0.9-0.9 1.7-1.9 2.5-2.9l45 16.9c-0.8 1-1.6 1.9-2.5 2.9" fill="#0B6CA6"/> <path d="m1572.2 236.2-45-16.9c0.7-0.9 1.3-1.8 1.8-2.8l45 16.9c-0.6 1.1-1.2 2-1.8 2.8" fill="#0C69A2"/> <path d="m1574 233.5-45-16.9c0.6-0.9 1.1-1.9 1.5-2.9l45 16.9c-0.4 1-0.9 2-1.5 2.9" fill="#0A669F"/> <path d="m1575.5 230.6-45-16.9c0.5-1.1 1-2.2 1.4-3.3l45 16.9c-0.4 1.1-0.8 2.2-1.4 3.3" fill="#09639A"/> <path d="m1576.9 227.3-45-16.9c0.5-1.4 0.9-2.8 1.3-4.3l45 16.9c-0.4 1.5-0.8 2.9-1.3 4.3" fill="#065F96"/> <path d="m1578.2 223-45-16.9c0.5-2.1 0.9-4.3 1.2-6.7l45 16.9c-0.3 2.4-0.7 4.6-1.2 6.7" fill="#025C92"/> <path d="m1579.4 216.4-45-16.9c0.3-2.6 0.5-5.3 0.5-8.1 0-15.5-4.3-24.9-13.1-28.2l45 16.9c8.7 3.3 13.1 12.7 13.1 28.2 0 2.8-0.2 5.5-0.5 8.1" fill="#01598F"/> </g> </g> <polygon points="1421.2 206.2 1376.2 189.4 1385 83.9 1430.1 100.7" fill="#066097"/> <polygon points="1430.1 100.7 1385 83.9 1506.2 59 1551.3 75.9" fill="#1076B2"/> <path d="m1551.3 75.9c77-15.8 115.4 22.4 115.2 114.6-0.2 85.3-29.1 137.3-86.8 156.1-19.2 3.9-28.9 17.5-28.9 40.5l-86.6 17.8 0.1-34.6c0.1-69.1 29.1-109.6 86.8-121.5 19.2-3.9 28.9-17.4 28.9-40.5 0-23-9.6-32.6-28.8-28.7l-129.9 26.6 8.9-105.5 121.1-24.8z" fill="#228ECE"/> <polygon points="963.9 779.6 920.1 799.5 846.9 726 890.7 706.1" fill="#0D9347"/> <polygon points="890.7 706.1 846.9 726 895.6 652.2 939.3 632.3" fill="#19B24B"/> <polygon points="963.9 779.6 890.7 706.1 939.3 632.3 1012.5 705.8" fill="#4EB748"/> <polygon points="866.3 681.6 822.5 701.5 798.1 677 841.9 657.1" fill="#0D9347"/> <g enable-background="new "> <defs> <path id="a" d="m697.4 364 43.8-19.9c-16.4 7.5-31.7 21.9-45.8 43.3l-43.8 19.9c14.1-21.4 29.3-35.8 45.8-43.3z" enable-background="new "/> </defs> <clipPath id="af"> <use overflow="visible" xlink:href="#a"/> </clipPath> <g clip-path="url(#af)" enable-background="new "> <path d="m695.3 387.4-43.8 19.9c6.4-9.7 13.1-18 20-24.9l43.8-19.9c-6.9 6.9-13.6 15.2-20 24.9" fill="#15A94B"/> <path d="m715.3 362.6-43.8 19.9c4.8-4.8 9.8-8.9 14.9-12.3l43.8-19.9c-5.1 3.3-10.1 7.4-14.9 12.3" fill="#17A54A"/> <path d="m730.2 350.3-43.8 19.9c3.6-2.4 7.2-4.4 10.9-6.1l43.8-19.9c-3.7 1.6-7.3 3.7-10.9 6.1" fill="#17A149"/> </g> <defs> <path id="ae" d="m736.2 470 43.8-19.9c8.5-3.9 18.2-0.3 29.2 10.7 16.3 16.3 19 32.7 8.2 49.1-32.4 49.2-24.3 98.3 24.5 147.3l-43.8 19.8c-48.8-49-57-98.1-24.5-147.3 10.8-16.4 8.1-32.8-8.2-49.1-11-10.9-20.7-14.5-29.2-10.6z" enable-background="new "/> </defs> <clipPath id="ad"> <use overflow="visible" xlink:href="#ae"/> </clipPath> <g clip-path="url(#ad)" enable-background="new "> <path d="m841.9 657.1-43.8 19.9c-6-6.1-11.5-12.1-16.3-18.2l43.8-19.9c4.8 6.1 10.2 12.2 16.3 18.2" fill="#0D9045"/> <path d="m825.6 638.9-43.8 19.9c-4.4-5.5-8.3-11.1-11.6-16.6l43.8-19.9c3.4 5.5 7.2 11.1 11.6 16.6" fill="#0C9346"/> <path d="m814 622.3-43.8 19.9c-2.4-3.9-4.5-7.9-6.3-11.8l43.8-19.9c1.8 3.9 3.9 7.9 6.3 11.8" fill="#0F9647"/> <path d="m807.7 610.5-43.8 19.9c-1.6-3.3-2.9-6.7-4.1-10l43.8-19.9c1.2 3.3 2.5 6.7 4.1 10" fill="#129A48"/> <path d="m803.6 600.5-43.8 19.9c-1.1-3.1-2.1-6.3-2.9-9.4l43.8-19.9c0.8 3.2 1.7 6.3 2.9 9.4" fill="#159E49"/> <path d="m800.7 591.1-43.7 19.9c-0.8-3.3-1.5-6.5-1.9-9.8l43.8-19.9c0.4 3.3 1 6.6 1.8 9.8" fill="#17A149"/> <path d="m798.8 581.4-43.8 19.9c-0.5-3.8-0.8-7.6-0.9-11.5l43.8-19.9c0.1 3.8 0.3 7.6 0.9 11.5" fill="#17A54A"/> <path d="m797.9 569.9-43.8 19.9c-0.1-6.8 0.6-13.6 2.1-20.3l43.8-19.9c-1.5 6.7-2.2 13.5-2.1 20.3" fill="#15A94B"/> <path d="m800 549.6-43.8 19.9c2.1-9.9 5.9-19.7 11.3-29.6l43.8-19.9c-5.5 9.8-9.2 19.7-11.3 29.6" fill="#16AD4B"/> <path d="m811.2 520-43.8 19.9c1.8-3.4 3.9-6.7 6.1-10.1 0.7-1.1 1.4-2.2 2-3.4l43.8-19.9c-0.6 1.1-1.3 2.2-2 3.4-2.2 3.3-4.2 6.7-6.1 10.1" fill="#15A94B"/> <path d="m819.4 506.5-43.8 19.9c1.8-3.3 3.1-6.6 3.8-9.9l43.8-19.9c-0.8 3.3-2 6.6-3.8 9.9" fill="#16AD4B"/> <path d="m823.1 496.6-43.8 19.9c0.5-2.3 0.7-4.5 0.7-6.8l43.8-19.9c0 2.3-0.2 4.6-0.7 6.8" fill="#15A94B"/> <path d="m823.8 489.9-43.8 19.9c0-1.3-0.1-2.5-0.3-3.8l43.8-19.9c0.2 1.2 0.3 2.5 0.3 3.8" fill="#17A54A"/> <path d="m823.5 486-43.7 20-0.6-3.3 43.8-19.9c0.1 1.1 0.4 2.2 0.5 3.2" fill="#17A149"/> <path d="m822.9 482.8-43.8 19.9c-0.3-1-0.6-2.1-1-3.1l43.8-19.9c0.4 1 0.7 2 1 3.1" fill="#159E49"/> <path d="m821.9 479.7-43.8 19.9c-0.4-1.1-0.9-2.2-1.4-3.3l43.8-19.9c0.6 1 1 2.2 1.4 3.3" fill="#129A48"/> <path d="m820.5 476.3-43.8 19.9c-0.6-1.3-1.3-2.6-2.1-3.9l43.8-19.9c0.8 1.3 1.5 2.6 2.1 3.9" fill="#0F9647"/> <path d="m818.4 472.4-43.8 19.9c-1.1-1.9-2.4-3.7-3.9-5.5l43.8-19.9c1.5 1.8 2.8 3.7 3.9 5.5" fill="#0C9346"/> <path d="m814.6 466.9-43.8 19.9c-1.6-2-3.4-4-5.4-6.1-11-11-20.7-14.6-29.2-10.7l43.8-19.9c8.5-3.9 18.2-0.3 29.2 10.7 2 2 3.8 4 5.4 6.1" fill="#0D9045"/> </g> </g> <polygon points="695.5 571.6 651.8 591.5 583.4 510.6 627.2 490.7" fill="#0F9747"/> <polygon points="627.2 490.7 583.4 510.6 651.6 407.3 695.3 387.4" fill="#19B24B"/> <path d="m695.3 387.4c43.3-65.6 97.4-65.7 162.5-0.4 60.2 60.4 76.5 117.7 48.9 171.7-10.8 16.4-8.1 32.8 8.2 49.1l-48.7 73.8-24.4-24.5c-48.8-49-57-98.1-24.5-147.3 10.8-16.4 8.1-32.8-8.2-49.1s-29.8-16.3-40.6 0.1l-73 110.7-68.3-80.9 68.1-103.2z" fill="#4EB748"/> <polygon points="777.6 1300.4 760.7 1345.4 657 1345.2 673.9 1300.2" fill="#928933"/> <polygon points="673.9 1300.2 657 1345.2 639.2 1258.6 656.1 1213.6" fill="#B0A533"/> <polygon points="777.6 1300.4 673.9 1300.2 656.1 1213.6 759.8 1213.8" fill="#D2C32A"/> <polygon points="639.3 1300.1 622.4 1345.1 587.9 1345.1 604.7 1300.1" fill="#928933"/> <g enable-background="new "> <defs> <path id="ac" d="m295.3 1195 16.9-45c-6.3 16.9-6.9 37.9-1.8 63l-16.9 45c-5.1-25.1-4.5-46.1 1.8-63z" enable-background="new "/> </defs> <clipPath id="ab"> <use overflow="visible" xlink:href="#ac"/> </clipPath> <g clip-path="url(#ab)" enable-background="new "> <path d="m310.4 1213-16.9 45c-2.3-11.4-3.5-22-3.5-31.7l16.9-45c0 9.7 1.1 20.2 3.5 31.7" fill="#A79D34"/> <path d="m306.9 1181.3-16.9 45c0-6.8 0.6-13.2 1.8-19.2l16.9-45c-1.1 5.9-1.7 12.3-1.8 19.2" fill="#A49934"/> <path d="m308.8 1162-16.9 45c0.8-4.2 2-8.2 3.4-12l16.9-45c-1.5 3.8-2.6 7.8-3.4 12" fill="#A09634"/> </g> <defs> <path id="aa" d="m397.7 1242.4 16.9-45c3.3-8.7 12.7-13.1 28.2-13.1 23.1 0 36.5 9.7 40.5 28.9 11.8 57.7 52.3 86.6 121.5 86.8l-16.9 45c-69.1-0.1-109.6-29.1-121.5-86.8-3.9-19.2-17.4-28.9-40.5-28.9-15.5 0-24.9 4.4-28.2 13.1z" enable-background="new "/> </defs> <clipPath id="z"> <use overflow="visible" xlink:href="#aa"/> </clipPath> <g clip-path="url(#z)" enable-background="new "> <path d="m604.7 1300.1-16.9 45c-8.6 0-16.7-0.5-24.4-1.4l16.9-45c7.8 0.9 15.9 1.3 24.4 1.4" fill="#8E8632"/> <path d="m580.4 1298.7-16.9 45c-7-0.8-13.7-2-20-3.6l16.9-45c6.3 1.6 12.9 2.8 20 3.6" fill="#918833"/> <path d="m560.4 1295.1-16.9 45c-4.5-1.1-8.7-2.4-12.8-3.9l16.9-45c4.1 1.5 8.3 2.8 12.8 3.9" fill="#958C33"/> <path d="m547.6 1291.2-16.9 45c-3.5-1.2-6.8-2.6-10-4.1l16.9-45c3.2 1.5 6.5 2.9 10 4.1" fill="#999034"/> <path d="m537.6 1287.1-16.9 45c-3-1.4-5.9-3-8.7-4.6l16.9-45c2.8 1.6 5.7 3.2 8.7 4.6" fill="#9D9334"/> <path d="m528.9 1282.5-16.9 45c-2.9-1.7-5.6-3.6-8.3-5.5l16.9-45c2.7 1.9 5.5 3.8 8.3 5.5" fill="#A09634"/> <path d="m520.7 1276.9-16.9 45c-3.1-2.3-6-4.8-8.7-7.5l16.9-45c2.7 2.7 5.6 5.2 8.7 7.5" fill="#A49934"/> <path d="m512 1269.5-16.9 45c-4.9-4.7-9.2-10-12.9-15.8l16.9-45c3.7 5.7 8 11 12.9 15.8" fill="#A79D34"/> <path d="m499 1253.6-16.9 45c-5.5-8.5-9.8-18.1-13-28.9l16.9-45c3.2 10.8 7.6 20.4 13 28.9" fill="#ABA134"/> <path d="m486.1 1224.7-16.9 45c-1.1-3.7-2-7.5-2.8-11.4-0.3-1.3-0.6-2.6-0.9-3.8l16.9-45c0.4 1.2 0.7 2.5 0.9 3.8 0.8 3.9 1.7 7.7 2.8 11.4" fill="#A79D34"/> <path d="m482.3 1209.5-16.9 45c-1.1-3.6-2.5-6.8-4.3-9.6l16.9-45c1.8 2.7 3.2 6 4.3 9.6" fill="#ABA134"/> <path d="m478 1199.8-16.9 45c-1.3-1.9-2.7-3.7-4.3-5.3l16.9-45c1.6 1.6 3 3.4 4.3 5.3" fill="#A79D34"/> <path d="m473.7 1194.5-16.9 45c-0.9-0.9-1.9-1.7-2.9-2.5l16.9-45c1 0.8 2 1.7 2.9 2.5" fill="#A49934"/> <path d="m470.8 1192.1-16.9 45c-0.9-0.7-1.8-1.3-2.8-1.8l16.9-45c1 0.5 1.9 1.1 2.8 1.8" fill="#A09634"/> <path d="m468 1190.2-16.9 45c-0.9-0.6-1.9-1.1-2.9-1.5l16.9-45c1 0.4 2 1 2.9 1.5" fill="#9D9334"/> <path d="m465.1 1188.7-16.9 45c-1.1-0.5-2.2-1-3.3-1.4l16.9-45c1.2 0.4 2.3 0.9 3.3 1.4" fill="#999034"/> <path d="m461.8 1187.3-16.9 45c-1.4-0.5-2.8-0.9-4.3-1.3l16.9-45c1.5 0.4 2.9 0.8 4.3 1.3" fill="#958C33"/> <path d="m457.5 1186-16.9 45c-2.1-0.5-4.3-0.9-6.7-1.2l16.9-45c2.4 0.3 4.6 0.7 6.7 1.2" fill="#918833"/> <path d="m450.9 1184.8-16.9 45c-2.6-0.3-5.3-0.5-8.1-0.5-15.5 0-24.9 4.3-28.2 13.1l16.9-45c3.3-8.7 12.7-13.1 28.2-13.1 2.8 0.1 5.5 0.2 8.1 0.5" fill="#8E8632"/> </g> </g> <polygon points="440.7 1343 423.9 1388 318.4 1379.2 335.3 1334.2" fill="#968D33"/> <polygon points="335.3 1334.2 318.4 1379.2 293.5 1258 310.4 1213" fill="#B0A533"/> <path d="m310.4 1213c-15.8-77 22.4-115.4 114.6-115.2 85.3 0.2 137.3 29.1 156.1 86.8 3.9 19.2 17.5 28.9 40.5 28.9l17.8 86.6-34.6-0.1c-69.1-0.1-109.6-29.1-121.5-86.8-3.9-19.2-17.4-28.9-40.5-28.9-23 0-32.6 9.6-28.7 28.8l26.6 129.9-105.5-8.9-24.8-121.1z" fill="#D2C32A"/> <polygon points="1014.1 1800.3 1034 1844.1 960.5 1917.3 940.6 1873.5" fill="#482D89"/> <polygon points="940.6 1873.5 960.5 1917.3 886.8 1868.6 866.9 1824.9" fill="#573C97"/> <polygon points="1014.1 1800.3 940.6 1873.5 866.9 1824.9 940.3 1751.7" fill="#614A9E"/> <polygon points="916.1 1897.9 936.1 1941.7 911.6 1966.1 891.7 1922.3" fill="#482D89"/> <g enable-background="new "> <defs> <path id="y" d="m598.6 2066.9-19.9-43.8c7.5 16.4 21.9 31.7 43.3 45.8l19.9 43.8c-21.4-14.2-35.9-29.4-43.3-45.8z" enable-background="new "/> </defs> <clipPath id="x"> <use overflow="visible" xlink:href="#y"/> </clipPath> <g clip-path="url(#x)" enable-background="new "> <path d="m621.9 2068.9 19.9 43.8c-9.7-6.4-18-13.1-24.9-20l-19.9-43.8c6.9 6.9 15.2 13.6 24.9 20" fill="#543594"/> <path d="m597.1 2048.9 19.9 43.8c-4.8-4.8-8.9-9.8-12.3-14.9l-19.9-43.8c3.4 5.1 7.5 10.1 12.3 14.9" fill="#523192"/> <path d="m584.8 2034 19.9 43.8c-2.4-3.6-4.4-7.2-6.1-10.9l-19.9-43.8c1.6 3.7 3.7 7.4 6.1 10.9" fill="#502E91"/> </g> <defs> <path id="w" d="m704.5 2028-19.9-43.8c-3.9-8.5-0.3-18.2 10.7-29.2 16.3-16.3 32.7-19 49.1-8.2 49.2 32.4 98.3 24.3 147.3-24.5l19.9 43.8c-49 48.8-98.1 57-147.3 24.5-16.4-10.8-32.8-8.1-49.1 8.2-11 11-14.6 20.7-10.7 29.2z" enable-background="new "/> </defs> <clipPath id="u"> <use overflow="visible" xlink:href="#w"/> </clipPath> <g clip-path="url(#u)" enable-background="new "> <path d="m891.7 1922.3 19.9 43.8c-6.1 6-12.1 11.5-18.2 16.3l-19.9-43.8c6-4.8 12.1-10.2 18.2-16.3" fill="#452D86"/> <path d="m873.5 1938.6 19.9 43.8c-5.5 4.4-11.1 8.3-16.6 11.6l-19.9-43.8c5.5-3.3 11-7.2 16.6-11.6" fill="#462D88"/> <path d="m856.8 1950.2 19.9 43.8c-3.9 2.4-7.9 4.5-11.8 6.3l-19.9-43.8c4-1.8 7.9-3.9 11.8-6.3" fill="#492D8B"/> <path d="m845 1956.5 19.9 43.8c-3.3 1.6-6.7 2.9-10 4.1l-19.9-43.8c3.4-1.1 6.7-2.5 10-4.1" fill="#4B2E8E"/> <path d="m835 1960.7 19.9 43.8c-3.1 1.1-6.3 2.1-9.4 2.9l-19.9-43.8c3.2-0.9 6.3-1.8 9.4-2.9" fill="#4E2E90"/> <path d="m825.6 1963.5 19.9 43.8c-3.3 0.8-6.5 1.5-9.8 1.9l-19.9-43.8c3.3-0.4 6.6-1.1 9.8-1.9" fill="#502E91"/> <path d="m815.9 1965.4 19.9 43.8c-3.8 0.5-7.6 0.8-11.5 0.9l-19.9-43.8c3.8 0 7.7-0.3 11.5-0.9" fill="#523192"/> <path d="m804.4 1966.3 19.9 43.8c-6.8 0.1-13.6-0.6-20.3-2.1l-19.9-43.8c6.8 1.5 13.5 2.2 20.3 2.1" fill="#543594"/> <path d="m784.1 1964.3 19.9 43.7c-9.9-2.1-19.7-5.9-29.6-11.3l-19.9-43.8c9.9 5.5 19.7 9.2 29.6 11.4" fill="#563896"/> <path d="m754.5 1953 19.9 43.8c-3.4-1.8-6.7-3.9-10.1-6.1-1.1-0.7-2.2-1.4-3.4-2l-19.9-43.8c1.1 0.6 2.2 1.3 3.4 2 3.4 2.2 6.7 4.2 10.1 6.1" fill="#543594"/> <path d="m741 1944.9 19.9 43.8c-3.3-1.8-6.6-3.1-9.9-3.8l-19.9-43.8c3.4 0.7 6.6 2 9.9 3.8" fill="#563896"/> <path d="m731.2 1941.1 19.9 43.8c-2.3-0.5-4.5-0.7-6.8-0.7l-19.9-43.8c2.2 0 4.5 0.2 6.8 0.7" fill="#543594"/> <path d="m724.4 1940.4 19.9 43.8c-1.3 0-2.5 0.1-3.8 0.3l-19.9-43.8c1.2-0.2 2.5-0.3 3.8-0.3" fill="#523192"/> <path d="m720.6 1940.7 19.9 43.8-3.3 0.6-19.9-43.8 3.3-0.6" fill="#502E91"/> <path d="m717.3 1941.3 19.9 43.8c-1 0.3-2.1 0.6-3.1 1l-19.9-43.8c1-0.4 2.1-0.7 3.1-1" fill="#4E2E90"/> <path d="m714.2 1942.3 19.9 43.8c-1.1 0.4-2.2 0.9-3.3 1.4l-19.9-43.8c1.1-0.5 2.2-1 3.3-1.4" fill="#4B2E8E"/> <path d="m710.9 1943.7 19.9 43.8c-1.3 0.6-2.6 1.3-3.9 2.1l-19.9-43.8c1.2-0.8 2.5-1.5 3.9-2.1" fill="#492D8B"/> <path d="m706.9 1945.8 19.9 43.8c-1.9 1.1-3.7 2.4-5.5 3.9l-19.9-43.8c1.8-1.5 3.7-2.8 5.5-3.9" fill="#462D88"/> <path d="m701.4 1949.6 19.9 43.8c-2 1.6-4 3.4-6.1 5.4-11 11-14.6 20.7-10.7 29.2l-19.9-43.8c-3.9-8.5-0.3-18.2 10.7-29.2 2-1.9 4.1-3.8 6.1-5.4" fill="#452D86"/> </g> </g> <polygon points="806.1 2068.7 826 2112.4 745.1 2180.8 725.2 2137" fill="#4A2D8C"/> <polygon points="725.2 2137 745.1 2180.8 641.8 2112.6 621.9 2068.9" fill="#573C97"/> <path d="m621.9 2068.9c-65.6-43.3-65.7-97.4-0.4-162.5 60.4-60.2 117.7-76.5 171.7-48.9 16.4 10.8 32.8 8.1 49.1-8.2l73.8 48.7-24.5 24.4c-49 48.8-98.1 57-147.3 24.5-16.4-10.8-32.8-8.1-49.1 8.2s-16.3 29.8 0.1 40.6l110.7 73-80.9 68.3-103.2-68.1z" fill="#614A9E"/> <polygon points="2034.9 1750.1 2078.6 1730.2 2151.8 1803.7 2108.1 1823.6" fill="#482D89"/> <polygon points="2108.1 1823.6 2151.8 1803.7 2103.2 1877.5 2059.4 1897.4" fill="#573C97"/> <polygon points="2034.9 1750.1 2108.1 1823.6 2059.4 1897.4 1986.2 1823.9" fill="#614A9E"/> <polygon points="2132.5 1848.1 2176.2 1828.2 2200.6 1852.7 2156.9 1872.6" fill="#482D89"/> <g enable-background="new "> <defs> <path id="t" d="m2301.4 2165.6-43.8 19.9c16.4-7.5 31.7-21.9 45.8-43.3l43.8-19.9c-14.1 21.4-29.4 35.9-45.8 43.3z" enable-background="new "/> </defs> <clipPath id="s"> <use overflow="visible" xlink:href="#t"/> </clipPath> <g clip-path="url(#s)" enable-background="new "> <path d="m2303.4 2142.3 43.8-19.9c-6.4 9.7-13.1 18-20 24.9l-43.8 19.9c6.9-6.9 13.6-15.2 20-24.9" fill="#543594"/> <path d="m2283.4 2167.1 43.8-19.9c-4.8 4.8-9.8 8.9-14.9 12.3l-43.8 19.9c5.1-3.4 10.1-7.5 14.9-12.3" fill="#523192"/> <path d="m2268.6 2179.4 43.8-19.9c-3.6 2.4-7.2 4.4-10.9 6.1l-43.8 19.9c3.6-1.6 7.3-3.7 10.9-6.1" fill="#502E91"/> </g> <defs> <path id="r" d="m2262.5 2059.7-43.8 19.9c-8.5 3.9-18.2 0.3-29.2-10.7-16.3-16.3-19-32.7-8.2-49.1 32.4-49.2 24.3-98.3-24.5-147.3l43.8-19.9c48.8 49 57 98.1 24.5 147.3-10.8 16.4-8.1 32.8 8.2 49.1 11 11 20.7 14.6 29.2 10.7z" enable-background="new "/> </defs> <clipPath id="q"> <use overflow="visible" xlink:href="#r"/> </clipPath> <g clip-path="url(#q)" enable-background="new "> <path d="m2156.9 1872.6 43.8-19.9c6 6.1 11.5 12.1 16.3 18.2l-43.8 19.9c-4.9-6.1-10.3-12.2-16.3-18.2" fill="#452D86"/> <path d="m2173.1 1890.8 43.8-19.9c4.4 5.5 8.3 11.1 11.6 16.6l-43.8 19.9c-3.3-5.6-7.2-11.1-11.6-16.6" fill="#462D88"/> <path d="m2184.7 1907.4 43.8-19.9c2.4 3.9 4.5 7.9 6.3 11.8l-43.8 19.9c-1.8-3.9-3.9-7.9-6.3-11.8" fill="#492D8B"/> <path d="m2191 1919.2 43.8-19.9c1.6 3.3 2.9 6.7 4.1 10l-43.8 19.9c-1.1-3.3-2.5-6.7-4.1-10" fill="#4B2E8E"/> <path d="m2195.2 1929.2 43.8-19.9c1.1 3.1 2.1 6.3 2.9 9.4l-43.8 19.9c-0.9-3.2-1.8-6.3-2.9-9.4" fill="#4E2E90"/> <path d="m2198 1938.6 43.8-19.9c0.8 3.3 1.5 6.5 1.9 9.8l-43.8 19.9c-0.4-3.3-1.1-6.6-1.9-9.8" fill="#502E91"/> <path d="m2199.9 1948.3 43.8-19.9c0.5 3.8 0.8 7.6 0.9 11.5l-43.8 19.9c0-3.8-0.3-7.6-0.9-11.5" fill="#523192"/> <path d="m2200.8 1959.8 43.8-19.9c0.1 6.8-0.6 13.6-2.1 20.3l-43.8 19.9c1.5-6.8 2.2-13.5 2.1-20.3" fill="#543594"/> <path d="m2198.8 1980.1 43.8-19.9c-2.1 9.9-5.9 19.7-11.3 29.6l-43.8 19.9c5.4-9.8 9.2-19.7 11.3-29.6" fill="#563896"/> <path d="m2187.5 2009.7 43.8-19.9c-1.8 3.4-3.9 6.7-6.1 10.1-0.7 1.1-1.4 2.2-2 3.4l-43.8 19.9c0.6-1.1 1.3-2.2 2-3.4 2.2-3.3 4.3-6.7 6.1-10.1" fill="#543594"/> <path d="m2179.4 2023.2 43.8-19.9c-1.8 3.3-3.1 6.6-3.8 9.9l-43.8 19.9c0.7-3.3 2-6.6 3.8-9.9" fill="#563896"/> <path d="m2175.6 2033.1 43.8-19.9c-0.5 2.3-0.7 4.5-0.7 6.8l-43.8 19.9c0-2.3 0.2-4.6 0.7-6.8" fill="#543594"/> <path d="m2174.9 2039.8 43.8-19.9c0 1.3 0.1 2.5 0.3 3.8l-43.8 19.9c-0.2-1.2-0.3-2.5-0.3-3.8" fill="#523192"/> <path d="m2175.2 2043.6 43.8-19.9 0.6 3.3-43.8 19.9-0.6-3.3" fill="#502E91"/> <path d="m2175.9 2046.9 43.8-19.9c0.3 1 0.6 2.1 1 3.1l-43.8 19.9c-0.5-1-0.8-2.1-1-3.1" fill="#4E2E90"/> <path d="m2176.8 2050 43.8-19.9c0.4 1.1 0.9 2.2 1.4 3.3l-43.8 19.9c-0.5-1.1-1-2.2-1.4-3.3" fill="#4B2E8E"/> <path d="m2178.2 2053.4 43.8-19.9c0.6 1.3 1.3 2.6 2.1 3.9l-43.8 19.9c-0.8-1.3-1.5-2.6-2.1-3.9" fill="#492D8B"/> <path d="m2180.3 2057.3 43.8-19.9c1.1 1.9 2.4 3.7 3.9 5.5l-43.8 19.9c-1.5-1.8-2.8-3.7-3.9-5.5" fill="#462D88"/> <path d="m2184.2 2062.8 43.8-19.9c1.6 2 3.4 4 5.4 6.1 11 11 20.7 14.6 29.2 10.7l-43.8 19.9c-8.5 3.9-18.2 0.3-29.2-10.7-2-2-3.8-4-5.4-6.1" fill="#452D86"/> </g> </g> <polygon points="2303.2 1958.1 2347 1938.2 2415.3 2019.1 2371.5 2039" fill="#4A2D8C"/> <polygon points="2371.5 2039 2415.3 2019.1 2347.2 2122.4 2303.4 2142.3" fill="#573C97"/> <path d="m2303.4 2142.3c-43.3 65.6-97.4 65.7-162.5 0.4-60.2-60.4-76.5-117.7-48.9-171.8 10.8-16.4 8.1-32.8-8.2-49.1l48.7-73.8 24.4 24.5c48.8 49 57 98.1 24.5 147.3-10.8 16.4-8.1 32.8 8.2 49.1s29.8 16.3 40.6-0.1l73-110.7 68.3 80.9-68.1 103.3z" fill="#614A9E"/> <polygon points="2221.2 1229.3 2238 1184.3 2341.7 1184.5 2324.9 1229.5" fill="#928933"/> <polygon points="2324.9 1229.5 2341.7 1184.5 2359.5 1271.1 2342.6 1316.1" fill="#B0A533"/> <polygon points="2221.2 1229.3 2324.9 1229.5 2342.6 1316.1 2238.9 1315.9" fill="#D2C32A"/> <polygon points="2359.4 1229.6 2376.3 1184.6 2410.9 1184.6 2394 1229.6" fill="#928933"/> <g enable-background="new "> <defs> <path id="p" d="m2703.4 1334.7-16.9 45c6.3-16.9 6.9-37.9 1.8-63l16.9-45c5.2 25.1 4.6 46.1-1.8 63z" enable-background="new "/> </defs> <clipPath id="o"> <use overflow="visible" xlink:href="#p"/> </clipPath> <g clip-path="url(#o)" enable-background="new "> <path d="m2688.3 1316.7 16.9-45c2.3 11.4 3.5 22 3.5 31.7l-16.9 45c0-9.7-1.1-20.2-3.5-31.7" fill="#A79D34"/> <path d="m2691.8 1348.4 16.9-45c0 6.8-0.6 13.2-1.8 19.2l-16.9 45c1.2-5.9 1.8-12.3 1.8-19.2" fill="#A49934"/> <path d="m2690 1367.7 16.9-45c-0.8 4.2-2 8.2-3.4 12l-16.9 45c1.4-3.8 2.5-7.8 3.4-12" fill="#A09634"/> </g> <defs> <path id="n" d="m2601.1 1287.3-16.9 45c-3.3 8.7-12.7 13.1-28.2 13.1-23.1 0-36.5-9.7-40.5-28.9-11.8-57.7-52.3-86.6-121.5-86.8l16.9-45c69.1 0.1 109.6 29.1 121.5 86.8 3.9 19.2 17.4 28.9 40.5 28.9 15.5 0 24.9-4.4 28.2-13.1z" enable-background="new "/> </defs> <clipPath id="m"> <use overflow="visible" xlink:href="#n"/> </clipPath> <g clip-path="url(#m)" enable-background="new "> <path d="m2394 1229.6 16.9-45c8.6 0 16.7 0.5 24.4 1.4l-16.9 45c-7.7-0.9-15.8-1.3-24.4-1.4" fill="#8E8632"/> <path d="m2418.4 1231 16.9-45c7 0.8 13.7 2 20 3.6l-16.9 45c-6.4-1.6-13-2.8-20-3.6" fill="#918833"/> <path d="m2438.3 1234.6 16.9-45c4.5 1.1 8.7 2.4 12.8 3.9l-16.9 45c-4-1.5-8.3-2.8-12.8-3.9" fill="#958C33"/> <path d="m2451.2 1238.5 16.9-45c3.5 1.2 6.8 2.6 10 4.1l-16.9 45c-3.3-1.5-6.6-2.9-10-4.1" fill="#999034"/> <path d="m2461.1 1242.6 16.9-45c3 1.4 5.9 3 8.7 4.6l-16.9 45c-2.8-1.6-5.7-3.2-8.7-4.6" fill="#9D9334"/> <path d="m2469.8 1247.2 16.9-45c2.9 1.7 5.6 3.6 8.3 5.5l-16.9 45c-2.7-1.9-5.4-3.8-8.3-5.5" fill="#A09634"/> <path d="m2478.1 1252.8 16.9-45c3.1 2.3 6 4.8 8.7 7.5l-16.9 45c-2.8-2.7-5.7-5.2-8.7-7.5" fill="#A49934"/> <path d="m2486.8 1260.2 16.9-45c4.9 4.7 9.2 10 12.9 15.8l-16.9 45c-3.8-5.8-8.1-11-12.9-15.8" fill="#A79D34"/> <path d="m2499.7 1276.1 16.9-45c5.5 8.5 9.8 18.1 13 28.9l-16.9 45c-3.2-10.8-7.5-20.5-13-28.9" fill="#ABA134"/> <path d="m2512.7 1305 16.9-45c1.1 3.7 2 7.5 2.8 11.4 0.3 1.3 0.6 2.6 0.9 3.8l-16.9 45c-0.4-1.2-0.7-2.5-0.9-3.8-0.8-3.9-1.8-7.7-2.8-11.4" fill="#A79D34"/> <path d="m2516.4 1320.2 16.9-45c1.1 3.6 2.5 6.8 4.3 9.6l-16.9 45c-1.8-2.8-3.2-6-4.3-9.6" fill="#ABA134"/> <path d="m2520.8 1329.9 16.9-45c1.3 1.9 2.7 3.7 4.3 5.3l-16.9 45c-1.7-1.6-3.1-3.4-4.3-5.3" fill="#A79D34"/> <path d="m2525.1 1335.1 16.9-45c0.9 0.9 1.9 1.7 2.9 2.5l-16.9 45c-1.1-0.7-2-1.6-2.9-2.5" fill="#A49934"/> <path d="m2528 1337.6 16.9-45c0.9 0.7 1.8 1.3 2.8 1.8l-16.9 45c-1-0.5-2-1.1-2.8-1.8" fill="#A09634"/> <path d="m2530.7 1339.5 16.9-45c0.9 0.6 1.9 1.1 2.9 1.5l-16.9 45c-1-0.4-2-1-2.9-1.5" fill="#9D9334"/> <path d="m2533.6 1341 16.9-45c1.1 0.5 2.2 1 3.3 1.4l-16.9 45c-1.1-0.4-2.2-0.9-3.3-1.4" fill="#999034"/> <path d="m2536.9 1342.4 16.9-45c1.4 0.5 2.8 0.9 4.3 1.3l-16.9 45c-1.5-0.4-2.9-0.8-4.3-1.3" fill="#958C33"/> <path d="m2541.2 1343.7 16.9-45c2.1 0.5 4.3 0.9 6.7 1.2l-16.9 45c-2.4-0.3-4.6-0.7-6.7-1.2" fill="#918833"/> <path d="m2547.9 1344.9 16.9-45c2.6 0.3 5.3 0.5 8.1 0.5 15.5 0 24.9-4.3 28.2-13.1l-16.9 45c-3.3 8.7-12.7 13.1-28.2 13.1-2.9-0.1-5.6-0.2-8.1-0.5" fill="#8E8632"/> </g> </g> <polygon points="2558 1186.7 2574.9 1141.7 2680.3 1150.5 2663.5 1195.5" fill="#968D33"/> <polygon points="2663.5 1195.5 2680.3 1150.5 2705.2 1271.7 2688.3 1316.7" fill="#B0A533"/> <path d="m2688.3 1316.7c15.8 77-22.4 115.4-114.6 115.2-85.3-0.2-137.3-29.1-156.1-86.8-3.9-19.2-17.5-28.9-40.5-28.9l-17.8-86.6 34.6 0.1c69.1 0.1 109.6 29.1 121.5 86.8 3.9 19.2 17.4 28.9 40.5 28.9 23 0 32.6-9.6 28.7-28.8l-26.6-129.9 105.5 8.9 24.8 121.1z" fill="#D2C32A"/> <polygon points="1984.6 729.3 1964.7 685.6 2038.2 612.4 2058.1 656.1" fill="#0D9347"/> <polygon points="2058.1 656.1 2038.2 612.4 2112 661.1 2131.9 704.8" fill="#19B24B"/> <polygon points="1984.6 729.3 2058.1 656.1 2131.9 704.8 2058.4 778" fill="#4EB748"/> <polygon points="2082.6 631.7 2062.7 588 2087.2 563.6 2107.1 607.3" fill="#0D9347"/> <g enable-background="new "> <defs> <path id="l" d="m2400.2 462.8 19.9 43.8c-7.5-16.4-21.9-31.7-43.3-45.8l-19.9-43.8c21.4 14.1 35.8 29.4 43.3 45.8z" enable-background="new "/> </defs> <clipPath id="j"> <use overflow="visible" xlink:href="#l"/> </clipPath> <g clip-path="url(#j)" enable-background="new "> <path d="m2376.8 460.8-19.9-43.8c9.7 6.4 18 13.1 24.9 20l19.9 43.8c-6.9-6.9-15.2-13.6-24.9-20" fill="#15A94B"/> <path d="m2401.7 480.8-19.9-43.8c4.8 4.8 8.9 9.8 12.3 14.9l19.9 43.8c-3.4-5.1-7.5-10.1-12.3-14.9" fill="#17A54A"/> <path d="m2414 495.7-19.9-43.8c2.4 3.6 4.4 7.2 6.1 10.9l19.9 43.8c-1.7-3.7-3.7-7.4-6.1-10.9" fill="#17A149"/> </g> <defs> <path id="i" d="m2294.2 501.7 19.9 43.8c3.9 8.5 0.3 18.2-10.7 29.2-16.3 16.3-32.7 19-49.1 8.2-49.2-32.4-98.3-24.3-147.3 24.5l-19.9-43.8c49-48.8 98.1-57 147.3-24.5 16.4 10.8 32.8 8.1 49.1-8.2 11-11 14.6-20.7 10.7-29.2z" enable-background="new "/> </defs> <clipPath id="h"> <use overflow="visible" xlink:href="#i"/> </clipPath> <g clip-path="url(#h)" enable-background="new "> <path d="m2107.1 607.3-19.9-43.8c6.1-6 12.1-11.5 18.2-16.3l19.9 43.8c-6.1 4.9-12.2 10.3-18.2 16.3" fill="#0D9045"/> <path d="m2125.3 591.1-19.9-43.8c5.5-4.4 11.1-8.3 16.6-11.6l19.9 43.8c-5.5 3.3-11.1 7.2-16.6 11.6" fill="#0C9346"/> <path d="m2141.9 579.5-19.9-43.8c3.9-2.4 7.9-4.5 11.8-6.3l19.9 43.8c-3.9 1.8-7.8 3.9-11.8 6.3" fill="#0F9647"/> <path d="m2153.7 573.2-19.9-43.8c3.3-1.6 6.7-2.9 10-4.1l19.9 43.8c-3.3 1.1-6.7 2.5-10 4.1" fill="#129A48"/> <path d="m2163.7 569-19.9-43.8c3.1-1.1 6.3-2.1 9.4-2.9l19.9 43.8c-3.1 0.9-6.3 1.8-9.4 2.9" fill="#159E49"/> <path d="m2173.1 566.2-19.9-43.8c3.3-0.8 6.5-1.5 9.8-1.9l19.9 43.8c-3.3 0.4-6.6 1.1-9.8 1.9" fill="#17A149"/> <path d="m2182.9 564.3-19.9-43.8c3.8-0.5 7.6-0.8 11.5-0.9l19.9 43.8c-3.9 0-7.7 0.3-11.5 0.9" fill="#17A54A"/> <path d="m2194.3 563.4-19.9-43.8c6.8-0.1 13.6 0.6 20.3 2.1l19.9 43.8c-6.7-1.5-13.5-2.2-20.3-2.1" fill="#15A94B"/> <path d="m2214.6 565.4-19.9-43.8c9.9 2.1 19.7 5.9 29.6 11.3l19.9 43.8c-9.8-5.4-19.7-9.1-29.6-11.3" fill="#16AD4B"/> <path d="m2244.3 576.7-19.9-43.8c3.4 1.8 6.7 3.9 10.1 6.1 1.1 0.7 2.2 1.4 3.4 2l19.9 43.8c-1.1-0.6-2.2-1.3-3.4-2-3.4-2.2-6.8-4.2-10.1-6.1" fill="#15A94B"/> <path d="m2257.7 584.8-19.9-43.8c3.3 1.8 6.6 3.1 9.9 3.8l19.9 43.8c-3.3-0.7-6.6-2-9.9-3.8" fill="#16AD4B"/> <path d="m2267.6 588.6-19.9-43.8c2.3 0.5 4.5 0.7 6.8 0.7l19.9 43.8c-2.3 0-4.6-0.2-6.8-0.7" fill="#15A94B"/> <path d="m2274.4 589.3-19.9-43.8c1.3 0 2.5-0.1 3.8-0.3l19.9 43.8c-1.3 0.2-2.6 0.3-3.8 0.3" fill="#17A54A"/> <path d="m2278.2 589-19.9-43.8 3.3-0.6 19.9 43.8c-1.2 0.2-2.2 0.4-3.3 0.6" fill="#17A149"/> <path d="m2281.4 588.3-19.9-43.8c1-0.3 2.1-0.6 3.1-1l19.9 43.8c-1 0.5-2 0.8-3.1 1" fill="#159E49"/> <path d="m2284.6 587.4-19.9-43.8c1.1-0.4 2.2-0.9 3.3-1.4l19.9 43.8c-1.1 0.5-2.2 1-3.3 1.4" fill="#129A48"/> <path d="m2287.9 586-19.9-43.8c1.3-0.6 2.6-1.3 3.9-2.1l19.9 43.8c-1.3 0.8-2.6 1.5-3.9 2.1" fill="#0F9647"/> <path d="m2291.8 583.9-19.9-43.8c1.9-1.1 3.7-2.4 5.5-3.9l19.9 43.8c-1.8 1.5-3.6 2.8-5.5 3.9" fill="#0C9346"/> <path d="m2297.4 580-19.9-43.8c2-1.6 4-3.4 6.1-5.4 11-11 14.6-20.7 10.7-29.2l19.9 43.8c3.9 8.5 0.3 18.2-10.7 29.2-2.1 2-4.1 3.8-6.1 5.4" fill="#0D9045"/> </g> </g> <polygon points="2192.7 461 2172.7 417.3 2253.6 348.9 2273.5 392.7" fill="#0F9747"/> <polygon points="2273.5 392.7 2253.6 348.9 2356.9 417 2376.8 460.8" fill="#19B24B"/> <path d="m2376.8 460.8c65.6 43.3 65.7 97.4 0.4 162.5-60.4 60.2-117.7 76.5-171.7 48.9-16.4-10.8-32.8-8.1-49.1 8.2l-73.8-48.7 24.5-24.4c49-48.8 98.1-57 147.3-24.5 16.4 10.8 32.8 8.1 49.1-8.2s16.3-29.8-0.1-40.6l-110.7-73 80.9-68.3 103.2 68.1z" fill="#4EB748"/> </g> </svg>